<svg width="64" height="64" viewBox="0 0 64 64" fill="none" xmlns="http://www.w3.org/2000/svg">
<path d="M29.689 58.3256C30.7404 57.2741 32.573 54.6305 31.4915 52.4675C31.1351 51.7572 29.689 49.7636 26.084 50.665C23.8549 51.2223 21.5745 52.4675 18.4202 54.7209C15.9605 56.4781 13.9139 56.5234 12.5652 56.0724C11.2831 55.6436 11.0185 53.8817 11.662 52.9185C12.5652 51.5666 13.4664 51.1154 13.4663 50.665C13.4662 50.2146 12.1124 50.4397 10.7604 51.1153C10.3096 51.3406 9.4083 52.4679 8.95751 53.369C8.41557 54.4524 8.48901 56.7048 8.95778 57.8747C9.56097 59.3799 11.5546 60.8428 13.4664 61.48C16.1702 62.3811 19.3246 61.9305 22.0283 61.48C26.6648 60.7074 29.0881 59.2268 29.689 58.3256Z" fill="#4B5765"/>
<path d="M35.8738 58.3256C34.8223 57.2741 32.9898 54.6305 34.0713 52.4675C34.4277 51.7572 35.8738 49.7636 39.4788 50.665C41.7079 51.2223 43.9882 52.4675 47.1426 54.7209C49.6023 56.4781 51.6488 56.5234 52.9975 56.0724C54.2796 55.6436 54.5442 53.8817 53.9007 52.9185C52.9975 51.5666 52.0963 51.1154 52.0964 50.665C52.0965 50.2146 53.4504 50.4397 54.8024 51.1153C55.2531 51.3406 56.1544 52.4679 56.6052 53.369C57.1472 54.4524 57.0737 56.7048 56.605 57.8747C56.0018 59.3799 54.0082 60.8428 52.0963 61.48C49.3925 62.3811 46.2382 61.9305 43.5344 61.48C38.898 60.7074 36.4746 59.2268 35.8738 58.3256Z" fill="#4B5765"/>
<path fill-rule="evenodd" clip-rule="evenodd" d="M53.629 29.9692C52.4292 31.4365 50.7728 33.4622 49.9637 36.6985C49.4506 38.7509 49.7878 42.4354 49.947 44.1763C49.9529 44.2399 49.9585 44.3009 49.9637 44.3591C49.579 44.2309 49.2064 44.1026 48.8382 43.9759C45.383 42.7865 42.3217 41.7328 33.2906 42.0874V42.1062C33.2143 42.1029 33.1383 42.0997 33.0626 42.0966C32.9888 42.0996 32.9146 42.1028 32.84 42.106V42.0876C23.1844 41.7094 19.5288 42.9328 15.6995 44.2143C15.5552 44.2626 15.4107 44.311 15.2656 44.3594C15.2709 44.3011 15.2765 44.2401 15.2823 44.1765C15.4416 42.4357 15.7787 38.7511 15.2656 36.6987C14.4565 33.4624 12.8001 31.4367 11.6003 29.9694C11.4636 29.8023 11.3329 29.6423 11.21 29.4887C12.1112 29.9393 14.2567 30.0133 16.6175 29.4887C19.4954 28.8492 20.558 28.134 21.2546 27.6652C21.5396 27.4734 21.7633 27.3228 22.025 27.2356C22.1972 27.3217 22.4525 27.5178 22.7831 27.7717C23.6057 28.4037 24.8947 29.3938 26.5312 29.9393C29.0343 30.7737 31.7948 30.8356 33.0251 30.8402C34.1272 30.8376 36.1447 30.7902 38.6981 29.9391C40.3346 29.3936 41.6236 28.4034 42.4462 27.7715C42.7768 27.5176 43.0321 27.3215 43.2044 27.2354C43.4661 27.3226 43.6898 27.4732 43.9748 27.665C44.6713 28.1338 45.7339 28.8489 48.6119 29.4885C50.9726 30.0131 53.1181 29.9391 54.0194 29.4885C53.8965 29.6421 53.7657 29.8021 53.629 29.9692Z" fill="#4B5765"/>
<path fill-rule="evenodd" clip-rule="evenodd" d="M43.1366 23.2122C40.7774 26.7323 36.8437 29.0376 32.3895 29.0376C27.9352 29.0376 24.0015 26.7322 21.6423 23.212C20.0017 26.1573 16.9531 28.1364 13.4631 28.1364C8.2368 28.1364 4 23.6979 4 18.2227C4 12.7474 8.2368 8.3089 13.4631 8.3089C16.0175 8.3089 18.3354 9.36912 20.0379 11.0924C21.8099 5.80007 26.6707 2 32.3895 2C38.1082 2 42.969 5.79998 44.741 11.0922C46.4435 9.36905 48.7614 8.3089 51.3156 8.3089C56.542 8.3089 60.7788 12.7474 60.7788 18.2227C60.7788 23.6979 56.542 28.1364 51.3156 28.1364C47.8258 28.1364 44.7772 26.1574 43.1366 23.2122Z" fill="#4B5765"/>
</svg>
